<?xml version="1.0" encoding="utf-8"?>
<!-- Generator: Adobe Illustrator 23.1.1, SVG Export Plug-In . SVG Version: 6.00 Build 0)  -->
<svg version="1.1" id="Layer_1" xmlns="http://www.w3.org/2000/svg" xmlns:xlink="http://www.w3.org/1999/xlink" x="0px" y="0px"
	 viewBox="0 0 283.46 283.46" style="enable-background:new 0 0 283.46 283.46;" xml:space="preserve">
<style type="text/css">
	.st0{fill:#310273;}
	.st1{fill:#F20587;}
</style>
<g>
	<g>
		<path class="st0" d="M163.28,127.69c1.71-1.85,3.08-3.2,4.3-4.66c12.95-15.33,5.67-41.27-14.13-43.83
			c-7.77-1.01-27.14-0.76-42.94-0.76v7.21h8.38c0,0,0.1,28.78-0.09,35.42c-0.15,4.97-0.01,4.2-0.01,8.32
			c2.47-0.57,4.18-0.82,7.58-0.97c9.65-0.4,20.97,1.43,26.86,5.27c12.25,7.98,17.91,18.31,19.35,30.54l16.63-15.46
			C183.78,138.9,175.06,132.04,163.28,127.69z M152.12,112.34c-1.04,9.01-3.71,11.15-14.77,11.15V85.54
			c10.67-0.39,13.58,1.97,14.69,10.66C152.71,101.52,152.73,107.03,152.12,112.34z"/>
		<path class="st0" d="M93.78,150.95l13.62,12.56c2-5.87,5.1-11.5,9.29-16.78c11.12-14.04,24.79-6.5,23.1,0.89
			c-0.72,3.15-3.56,6.53-4.19,9.68c-0.54,1.6-0.85,3.3-0.85,5.08c0,8.75,7.1,15.85,15.85,15.85c0.9,0,1.78-0.09,2.64-0.24
			c3.01-0.22,5.9-1.38,8.43-3.8c1.8-1.73,2.99-3.68,3.65-5.75c0.08-0.24,0.14-0.47,0.19-0.71c0.6-1.67,0.97-3.47,0.95-5.35
			C166.13,139.73,121.68,117.46,93.78,150.95z"/>
	</g>
	<path class="st1" d="M141.49,186.33l-65.07-57.59c0.8,5.23,2.54,10.27,5.14,14.88l2.44,4.32l57.52,57.52l0.02-0.07l57.48-57.48
		l2.44-4.32c2.6-4.61,4.34-9.65,5.14-14.88L141.49,186.33z"/>
</g>
</svg>
