<?xml version="1.0" encoding="utf-8"?>
<!-- Generator: Adobe Illustrator 23.1.1, SVG Export Plug-In . SVG Version: 6.00 Build 0)  -->
<svg version="1.1" id="Layer_1" xmlns="http://www.w3.org/2000/svg" xmlns:xlink="http://www.w3.org/1999/xlink" x="0px" y="0px"
	 viewBox="0 0 841.89 595.28" style="enable-background:new 0 0 841.89 595.28;" xml:space="preserve">
<style type="text/css">
	.st0{fill:#F20587;}
	.st1{fill:#310273;}
</style>
<g>
	<g>
		<path class="st0" d="M393.55,271.59c0,0.93-0.13,1.75-0.4,2.46c-0.26,0.7-0.63,1.32-1.09,1.85c-0.46,0.53-1,0.97-1.63,1.33
			c-0.63,0.36-1.31,0.66-2.04,0.9v0.16c0.95,0.16,1.81,0.44,2.6,0.83c0.78,0.39,1.46,0.9,2.02,1.53c0.56,0.63,1,1.37,1.31,2.23
			c0.31,0.86,0.47,1.84,0.47,2.93c0,2.68-0.88,4.68-2.64,6.02c-1.76,1.33-4.44,2-8.04,2h-12.38v-1.75h0.53
			c0.47,0,0.92-0.03,1.33-0.1c0.41-0.07,0.77-0.21,1.08-0.42c0.31-0.21,0.55-0.51,0.73-0.9c0.18-0.39,0.26-0.91,0.26-1.56v-20.37
			c0-0.61-0.09-1.1-0.27-1.47c-0.18-0.37-0.43-0.66-0.74-0.86c-0.31-0.2-0.67-0.33-1.09-0.4c-0.41-0.06-0.85-0.09-1.31-0.09h-0.53
			v-1.75h11.14c3.6,0,6.28,0.6,8.04,1.8C392.67,267.16,393.55,269.04,393.55,271.59z M379.87,277.25h2.88
			c1.22,0,2.23-0.11,3.04-0.32c0.81-0.22,1.46-0.55,1.95-1c0.49-0.45,0.84-1.04,1.05-1.76c0.21-0.72,0.31-1.58,0.31-2.58
			c0-1.01-0.12-1.86-0.35-2.55s-0.6-1.23-1.12-1.65s-1.18-0.72-2-0.89c-0.82-0.18-1.82-0.26-2.99-0.26h-2.78V277.25z M379.87,291.76
			h4.04c1.18,0,2.17-0.11,2.98-0.32c0.81-0.22,1.47-0.56,1.99-1.04c0.51-0.48,0.89-1.11,1.12-1.88c0.23-0.77,0.35-1.71,0.35-2.82
			c0-1.08-0.1-2.02-0.3-2.82c-0.2-0.8-0.55-1.46-1.05-1.99c-0.49-0.53-1.15-0.92-1.96-1.18c-0.81-0.26-1.83-0.39-3.04-0.39h-4.12
			V291.76z"/>
		<path class="st0" d="M425.09,278.96c0,2.29-0.28,4.37-0.85,6.25c-0.57,1.88-1.41,3.49-2.52,4.83c-1.11,1.34-2.48,2.37-4.1,3.1
			c-1.62,0.73-3.48,1.1-5.58,1.1c-2.21,0-4.13-0.37-5.76-1.1c-1.64-0.73-3-1.77-4.08-3.1c-1.08-1.34-1.89-2.95-2.44-4.84
			c-0.54-1.89-0.81-3.98-0.81-6.28s0.27-4.39,0.81-6.26c0.54-1.87,1.35-3.47,2.44-4.8c1.08-1.33,2.45-2.35,4.1-3.07
			c1.65-0.72,3.58-1.08,5.78-1.08c2.1,0,3.95,0.36,5.56,1.08c1.61,0.72,2.97,1.75,4.08,3.08c1.11,1.33,1.95,2.94,2.52,4.81
			C424.8,274.55,425.09,276.65,425.09,278.96z M403.56,278.96c0,2.06,0.15,3.89,0.46,5.51c0.3,1.62,0.79,2.98,1.47,4.1
			c0.68,1.12,1.55,1.97,2.63,2.56c1.08,0.59,2.38,0.88,3.93,0.88c1.54,0,2.85-0.29,3.93-0.88c1.08-0.59,1.95-1.44,2.62-2.56
			c0.67-1.12,1.15-2.48,1.45-4.1c0.3-1.62,0.45-3.45,0.45-5.51c0-2.06-0.15-3.89-0.45-5.51c-0.3-1.62-0.78-2.98-1.45-4.09
			c-0.67-1.11-1.54-1.96-2.6-2.54c-1.06-0.58-2.36-0.87-3.91-0.87c-1.54,0-2.85,0.29-3.94,0.87c-1.08,0.58-1.97,1.43-2.65,2.54
			c-0.68,1.11-1.18,2.47-1.48,4.09C403.71,275.07,403.56,276.9,403.56,278.96z"/>
		<path class="st0" d="M455.55,278.96c0,2.29-0.28,4.37-0.85,6.25c-0.57,1.88-1.41,3.49-2.52,4.83c-1.11,1.34-2.48,2.37-4.1,3.1
			c-1.62,0.73-3.48,1.1-5.58,1.1c-2.21,0-4.13-0.37-5.76-1.1c-1.64-0.73-3-1.77-4.08-3.1c-1.08-1.34-1.89-2.95-2.44-4.84
			c-0.54-1.89-0.81-3.98-0.81-6.28s0.27-4.39,0.81-6.26c0.54-1.87,1.35-3.47,2.44-4.8c1.08-1.33,2.45-2.35,4.1-3.07
			c1.65-0.72,3.58-1.08,5.78-1.08c2.1,0,3.95,0.36,5.56,1.08c1.61,0.72,2.97,1.75,4.08,3.08c1.11,1.33,1.95,2.94,2.52,4.81
			C455.27,274.55,455.55,276.65,455.55,278.96z M434.02,278.96c0,2.06,0.15,3.89,0.46,5.51c0.3,1.62,0.79,2.98,1.47,4.1
			c0.68,1.12,1.55,1.97,2.63,2.56c1.08,0.59,2.38,0.88,3.93,0.88c1.54,0,2.85-0.29,3.93-0.88c1.08-0.59,1.95-1.44,2.62-2.56
			c0.67-1.12,1.15-2.48,1.45-4.1c0.3-1.62,0.45-3.45,0.45-5.51c0-2.06-0.15-3.89-0.45-5.51c-0.3-1.62-0.78-2.98-1.45-4.09
			c-0.67-1.11-1.54-1.96-2.6-2.54c-1.06-0.58-2.36-0.87-3.91-0.87c-1.54,0-2.85,0.29-3.94,0.87c-1.08,0.58-1.97,1.43-2.65,2.54
			c-0.68,1.11-1.18,2.47-1.48,4.09C434.17,275.07,434.02,276.9,434.02,278.96z"/>
		<path class="st0" d="M474.96,270.76c0.45-0.51,0.82-0.97,1.12-1.37c0.3-0.4,0.53-0.76,0.7-1.08c0.17-0.32,0.29-0.61,0.37-0.85
			c0.07-0.24,0.11-0.47,0.11-0.67c0-0.35-0.17-0.59-0.51-0.72c-0.34-0.13-0.85-0.19-1.54-0.19v-1.7h9.19v1.7
			c-0.47,0-0.93,0.09-1.37,0.27c-0.44,0.18-0.88,0.44-1.32,0.77c-0.44,0.33-0.89,0.74-1.36,1.22c-0.47,0.48-0.97,1.02-1.51,1.63
			l-6.03,6.78l8.77,12.22c0.8,1.1,1.56,1.92,2.3,2.49c0.74,0.56,1.49,0.84,2.26,0.84h0.08v1.75h-0.45c-1.39,0-2.54-0.05-3.43-0.16
			c-0.89-0.11-1.64-0.3-2.25-0.59c-0.61-0.28-1.14-0.67-1.59-1.15c-0.45-0.48-0.94-1.09-1.45-1.84l-7.16-10.27l-3.53,2.86v6.41
			c0,0.65,0.09,1.17,0.27,1.56c0.18,0.39,0.43,0.69,0.73,0.9c0.3,0.21,0.67,0.35,1.09,0.42c0.42,0.07,0.86,0.1,1.32,0.1h0.55v1.75
			h-12.09v-1.75h0.53c0.46,0,0.9-0.03,1.31-0.09c0.41-0.06,0.77-0.18,1.09-0.38c0.31-0.19,0.56-0.47,0.74-0.84
			c0.18-0.37,0.27-0.86,0.27-1.47v-20.58c0-0.61-0.09-1.1-0.27-1.47c-0.18-0.37-0.43-0.66-0.74-0.86c-0.31-0.2-0.67-0.33-1.09-0.4
			c-0.41-0.06-0.85-0.09-1.31-0.09h-0.53v-1.75h12.09v1.75h-0.55c-0.46,0-0.9,0.03-1.32,0.1c-0.42,0.07-0.78,0.21-1.09,0.42
			c-0.3,0.21-0.55,0.51-0.73,0.9c-0.18,0.39-0.27,0.91-0.27,1.56v11.73L474.96,270.76z"/>
		<path class="st0" d="M488.8,293.83v-1.75h0.53c0.47,0,0.92-0.03,1.33-0.1c0.41-0.07,0.77-0.21,1.08-0.42
			c0.31-0.21,0.55-0.51,0.73-0.9c0.18-0.39,0.26-0.91,0.26-1.56v-20.21c0-0.65-0.09-1.17-0.26-1.56c-0.18-0.39-0.42-0.69-0.73-0.9
			c-0.31-0.21-0.67-0.35-1.08-0.42c-0.41-0.07-0.86-0.1-1.33-0.1h-0.53v-1.75h12.09v1.75h-0.55c-0.46,0-0.9,0.03-1.32,0.1
			c-0.42,0.07-0.78,0.21-1.09,0.42c-0.3,0.21-0.55,0.51-0.73,0.9c-0.18,0.39-0.27,0.91-0.27,1.56v20.21c0,0.65,0.09,1.17,0.27,1.56
			c0.18,0.39,0.43,0.69,0.73,0.9c0.3,0.21,0.67,0.35,1.09,0.42c0.42,0.07,0.86,0.1,1.32,0.1h0.55v1.75H488.8z"/>
		<path class="st0" d="M526.54,293.83l-15.58-23.94v19.22c0,0.65,0.09,1.17,0.27,1.56c0.18,0.39,0.43,0.69,0.73,0.9
			c0.3,0.21,0.67,0.35,1.09,0.42c0.42,0.07,0.86,0.1,1.32,0.1h0.55v1.75h-10.43v-1.75h0.53c0.47,0,0.92-0.03,1.33-0.1
			c0.41-0.07,0.77-0.21,1.08-0.42c0.31-0.21,0.55-0.51,0.73-0.9c0.18-0.39,0.26-0.91,0.26-1.56v-20.37c0-0.61-0.09-1.1-0.27-1.47
			c-0.18-0.37-0.43-0.66-0.74-0.86c-0.31-0.2-0.67-0.33-1.09-0.4c-0.41-0.06-0.85-0.09-1.31-0.09h-0.53v-1.75h7.61l14.87,22.97
			v-18.41c0-0.61-0.09-1.1-0.27-1.47c-0.18-0.37-0.43-0.66-0.74-0.86c-0.31-0.2-0.67-0.33-1.09-0.4c-0.41-0.06-0.85-0.09-1.31-0.09
			h-0.55v-1.75h10.43v1.75h-0.53c-0.47,0-0.92,0.03-1.33,0.1c-0.41,0.07-0.77,0.21-1.09,0.42c-0.31,0.21-0.55,0.51-0.73,0.9
			c-0.18,0.39-0.26,0.91-0.26,1.56v24.94H526.54z"/>
		<path class="st0" d="M550.03,294.24c-2.41,0-4.51-0.37-6.3-1.1c-1.79-0.73-3.28-1.77-4.46-3.1c-1.18-1.34-2.07-2.95-2.65-4.83
			c-0.58-1.88-0.87-3.96-0.87-6.25c0-2.24,0.31-4.3,0.92-6.17c0.62-1.87,1.54-3.47,2.76-4.81c1.22-1.34,2.74-2.38,4.56-3.13
			c1.81-0.74,3.92-1.12,6.31-1.12c1.54,0,2.88,0.12,4.03,0.35c1.14,0.24,2.1,0.57,2.86,0.98c0.76,0.42,1.34,0.91,1.71,1.48
			c0.38,0.57,0.57,1.18,0.57,1.85c0,0.45-0.1,0.85-0.3,1.21c-0.2,0.36-0.48,0.66-0.82,0.91c-0.34,0.25-0.75,0.44-1.22,0.58
			c-0.47,0.14-0.97,0.2-1.51,0.2c0-0.65-0.09-1.29-0.28-1.93s-0.5-1.21-0.93-1.71c-0.43-0.51-1-0.92-1.7-1.24
			c-0.7-0.32-1.56-0.48-2.58-0.48c-1.76,0-3.26,0.29-4.5,0.86c-1.24,0.58-2.25,1.41-3.03,2.52c-0.78,1.1-1.35,2.46-1.7,4.08
			c-0.35,1.62-0.53,3.47-0.53,5.55c0,2.07,0.18,3.91,0.55,5.52c0.36,1.61,0.96,2.96,1.78,4.06c0.83,1.1,1.89,1.93,3.21,2.5
			c1.31,0.57,2.91,0.85,4.81,0.85c0.8,0,1.57-0.04,2.32-0.12c0.75-0.08,1.42-0.21,2-0.39v-6.7c0-0.61-0.09-1.1-0.27-1.47
			c-0.18-0.37-0.43-0.66-0.74-0.85c-0.31-0.2-0.67-0.33-1.09-0.4c-0.41-0.07-0.85-0.1-1.31-0.1h-0.16v-1.75h10.79v1.75h-0.16
			c-0.39,0-0.76,0.03-1.12,0.1c-0.35,0.07-0.66,0.21-0.91,0.42c-0.26,0.21-0.46,0.51-0.61,0.91c-0.15,0.4-0.22,0.92-0.22,1.57v7.47
			c-1.39,0.65-2.83,1.13-4.3,1.44C553.45,294.08,551.82,294.24,550.03,294.24z"/>
	</g>
	<g>
		<path class="st1" d="M397.87,307.48c0,1-0.14,1.87-0.41,2.62c-0.27,0.74-0.66,1.38-1.16,1.92c-0.5,0.54-1.1,1-1.8,1.38
			c-0.7,0.38-1.47,0.71-2.33,0.97v0.22c1.04,0.27,2,0.63,2.86,1.09c0.86,0.46,1.6,1.03,2.23,1.7c0.63,0.67,1.11,1.45,1.46,2.33
			c0.35,0.88,0.52,1.88,0.52,2.98c0,2.97-1.08,5.19-3.24,6.65c-2.16,1.46-5.39,2.2-9.69,2.2h-14.57v-2.41h1.85
			c0.34,0,0.65-0.03,0.94-0.1c0.29-0.07,0.53-0.2,0.74-0.41c0.21-0.21,0.37-0.5,0.5-0.88c0.12-0.38,0.19-0.9,0.19-1.54v-21.65
			c0-0.6-0.06-1.09-0.19-1.47c-0.12-0.37-0.29-0.67-0.51-0.87c-0.21-0.21-0.46-0.35-0.75-0.43c-0.29-0.08-0.59-0.12-0.92-0.12h-1.85
			v-2.38h13.2c4.3,0,7.53,0.66,9.69,1.99C396.79,302.58,397.87,304.66,397.87,307.48z M383.08,313.29h1.72
			c1.06,0,1.94-0.11,2.64-0.33c0.7-0.22,1.26-0.56,1.68-1.03c0.42-0.46,0.72-1.06,0.89-1.8c0.18-0.74,0.27-1.62,0.27-2.65
			c0-1.03-0.1-1.89-0.3-2.58c-0.2-0.69-0.52-1.25-0.96-1.68s-1.02-0.73-1.72-0.92c-0.71-0.18-1.57-0.28-2.58-0.28h-1.63V313.29z
			 M383.08,328.78h3c1,0,1.85-0.11,2.56-0.33c0.71-0.22,1.28-0.58,1.72-1.07c0.44-0.49,0.76-1.14,0.96-1.93
			c0.2-0.8,0.3-1.77,0.3-2.91c0-1.1-0.09-2.06-0.26-2.88c-0.18-0.82-0.48-1.49-0.91-2.02c-0.43-0.53-0.99-0.93-1.68-1.19
			c-0.69-0.27-1.56-0.4-2.61-0.4h-3.09V328.78z"/>
		<path class="st1" d="M410.82,320.93l-1.3,3.89c-0.12,0.37-0.24,0.8-0.36,1.29c-0.13,0.49-0.19,0.92-0.19,1.29
			c0,0.29,0.06,0.55,0.18,0.77c0.12,0.22,0.27,0.4,0.46,0.54c0.19,0.14,0.41,0.25,0.65,0.32c0.24,0.07,0.5,0.11,0.76,0.11h1.9v2.41
			h-11.76v-2.41h0.55c0.4,0,0.76-0.04,1.09-0.13s0.64-0.25,0.93-0.5c0.29-0.24,0.56-0.58,0.82-1c0.26-0.43,0.52-0.98,0.78-1.65
			l9.8-26.58h6.2l9.45,26.62c0.22,0.63,0.45,1.16,0.7,1.58s0.51,0.75,0.8,0.99c0.29,0.24,0.59,0.42,0.92,0.52
			c0.32,0.1,0.66,0.16,1.01,0.16h0.82v2.41h-14.92v-2.41h1.77c0.22,0,0.45-0.03,0.68-0.1c0.24-0.07,0.45-0.17,0.63-0.31
			c0.18-0.14,0.33-0.32,0.45-0.54c0.12-0.22,0.18-0.49,0.18-0.8c0-0.37-0.04-0.72-0.13-1.06c-0.09-0.34-0.18-0.63-0.26-0.88
			l-1.59-4.53H410.82z M418.53,310.75c-0.16-0.52-0.33-1.06-0.5-1.62c-0.17-0.57-0.34-1.14-0.51-1.73
			c-0.17-0.59-0.33-1.17-0.49-1.75c-0.15-0.58-0.29-1.14-0.41-1.67c-0.13,0.46-0.29,0.96-0.46,1.5c-0.18,0.55-0.36,1.1-0.56,1.68
			c-0.2,0.57-0.4,1.15-0.6,1.72c-0.2,0.57-0.39,1.13-0.56,1.66l-2.67,7.64h9.14L418.53,310.75z"/>
		<path class="st1" d="M437.76,329.14h1.9c0.31,0,0.6-0.03,0.88-0.09c0.28-0.06,0.53-0.18,0.74-0.36c0.21-0.18,0.38-0.46,0.51-0.82
			c0.12-0.36,0.19-0.83,0.19-1.42v-22.03c0-0.6-0.06-1.08-0.19-1.45c-0.12-0.36-0.29-0.64-0.51-0.83c-0.21-0.19-0.46-0.32-0.74-0.39
			c-0.28-0.07-0.57-0.1-0.88-0.1h-1.9v-2.38h14.57c4.27,0,7.4,0.71,9.39,2.14c1.99,1.43,2.99,3.5,2.99,6.22
			c0,1.19-0.18,2.25-0.53,3.18c-0.35,0.93-0.82,1.74-1.4,2.43c-0.58,0.69-1.24,1.28-1.98,1.75c-0.74,0.48-1.49,0.87-2.25,1.18
			l5.39,9.27c0.38,0.65,0.75,1.2,1.11,1.67c0.36,0.46,0.72,0.85,1.08,1.15c0.36,0.3,0.73,0.52,1.11,0.66
			c0.38,0.14,0.79,0.21,1.21,0.21h0.18v2.41h-1.48c-1.35,0-2.53-0.05-3.54-0.15c-1.01-0.1-1.89-0.3-2.65-0.61
			c-0.76-0.3-1.41-0.72-1.96-1.25c-0.55-0.53-1.06-1.21-1.53-2.05l-5.36-9.96h-3v8.92c0,0.59,0.06,1.06,0.19,1.42
			c0.12,0.36,0.29,0.63,0.51,0.82c0.21,0.18,0.46,0.3,0.74,0.36c0.28,0.06,0.57,0.09,0.88,0.09h1.94v2.41h-15.61V329.14z
			 M449.1,314.9h2.54c1.04,0,1.92-0.14,2.62-0.42c0.7-0.28,1.26-0.7,1.68-1.25s0.72-1.24,0.9-2.08c0.18-0.83,0.28-1.8,0.28-2.9
			c0-1.15-0.1-2.12-0.31-2.91c-0.21-0.79-0.53-1.45-0.97-1.95c-0.44-0.51-1.01-0.88-1.72-1.1c-0.71-0.23-1.56-0.34-2.56-0.34h-2.45
			V314.9z"/>
		<path class="st1" d="M497.43,307.48c0,1-0.14,1.87-0.41,2.62c-0.27,0.74-0.66,1.38-1.16,1.92c-0.5,0.54-1.1,1-1.8,1.38
			c-0.7,0.38-1.47,0.71-2.33,0.97v0.22c1.04,0.27,2,0.63,2.86,1.09c0.86,0.46,1.6,1.03,2.23,1.7c0.63,0.67,1.11,1.45,1.46,2.33
			c0.35,0.88,0.52,1.88,0.52,2.98c0,2.97-1.08,5.19-3.24,6.65c-2.16,1.46-5.39,2.2-9.69,2.2h-14.57v-2.41h1.85
			c0.34,0,0.65-0.03,0.94-0.1c0.29-0.07,0.53-0.2,0.74-0.41c0.21-0.21,0.37-0.5,0.5-0.88c0.12-0.38,0.19-0.9,0.19-1.54v-21.65
			c0-0.6-0.06-1.09-0.19-1.47c-0.12-0.37-0.29-0.67-0.51-0.87c-0.21-0.21-0.46-0.35-0.75-0.43c-0.29-0.08-0.59-0.12-0.92-0.12h-1.85
			v-2.38h13.2c4.3,0,7.53,0.66,9.69,1.99C496.34,302.58,497.43,304.66,497.43,307.48z M482.64,313.29h1.72
			c1.06,0,1.94-0.11,2.64-0.33c0.7-0.22,1.26-0.56,1.68-1.03c0.42-0.46,0.72-1.06,0.89-1.8c0.18-0.74,0.27-1.62,0.27-2.65
			c0-1.03-0.1-1.89-0.3-2.58c-0.2-0.69-0.52-1.25-0.96-1.68s-1.02-0.73-1.72-0.92c-0.71-0.18-1.57-0.28-2.58-0.28h-1.63V313.29z
			 M482.64,328.78h3c1,0,1.85-0.11,2.56-0.33c0.71-0.22,1.28-0.58,1.72-1.07c0.44-0.49,0.76-1.14,0.96-1.93
			c0.2-0.8,0.3-1.77,0.3-2.91c0-1.1-0.09-2.06-0.26-2.88c-0.18-0.82-0.48-1.49-0.91-2.02c-0.43-0.53-0.99-0.93-1.68-1.19
			c-0.69-0.27-1.56-0.4-2.61-0.4h-3.09V328.78z"/>
		<path class="st1" d="M512.61,328.78h9.05c0.46,0,0.85-0.08,1.17-0.25c0.32-0.17,0.6-0.41,0.84-0.72c0.24-0.31,0.42-0.67,0.56-1.09
			c0.14-0.42,0.25-0.88,0.32-1.38l0.35-2.12h3.13l-0.33,8.32h-26.49v-2.41h1.9c0.32,0,0.63-0.03,0.9-0.09
			c0.28-0.06,0.53-0.18,0.74-0.36c0.21-0.18,0.38-0.46,0.5-0.82c0.12-0.36,0.18-0.83,0.18-1.42v-21.85c0-0.65-0.06-1.16-0.18-1.55
			c-0.12-0.38-0.28-0.68-0.49-0.88c-0.21-0.21-0.45-0.34-0.73-0.41c-0.28-0.07-0.59-0.1-0.93-0.1h-1.9v-2.38h25.1l0.18,8.32h-3.16
			l-0.22-2.14c-0.12-1.1-0.4-1.95-0.84-2.54c-0.44-0.59-1.13-0.88-2.05-0.88h-7.62v11.3h10.73v2.72h-10.73V328.78z"/>
		<path class="st1" d="M531.37,329.14h1.9c0.31,0,0.6-0.03,0.88-0.09c0.28-0.06,0.53-0.18,0.74-0.36c0.21-0.18,0.38-0.46,0.51-0.82
			c0.12-0.36,0.19-0.83,0.19-1.42v-22.03c0-0.6-0.06-1.08-0.19-1.45c-0.12-0.36-0.29-0.64-0.51-0.83c-0.21-0.19-0.46-0.32-0.74-0.39
			c-0.28-0.07-0.57-0.1-0.88-0.1h-1.9v-2.38h14.57c4.27,0,7.4,0.71,9.39,2.14c1.99,1.43,2.99,3.5,2.99,6.22
			c0,1.19-0.18,2.25-0.53,3.18c-0.35,0.93-0.82,1.74-1.4,2.43c-0.58,0.69-1.24,1.28-1.98,1.75c-0.74,0.48-1.49,0.87-2.25,1.18
			l5.39,9.27c0.38,0.65,0.75,1.2,1.11,1.67c0.36,0.46,0.72,0.85,1.08,1.15c0.36,0.3,0.73,0.52,1.11,0.66
			c0.38,0.14,0.79,0.21,1.21,0.21h0.18v2.41h-1.48c-1.35,0-2.53-0.05-3.54-0.15c-1.01-0.1-1.89-0.3-2.65-0.61
			c-0.76-0.3-1.41-0.72-1.96-1.25c-0.55-0.53-1.06-1.21-1.53-2.05l-5.36-9.96h-3v8.92c0,0.59,0.06,1.06,0.19,1.42
			c0.12,0.36,0.29,0.63,0.51,0.82c0.21,0.18,0.46,0.3,0.74,0.36c0.28,0.06,0.57,0.09,0.88,0.09h1.94v2.41h-15.61V329.14z
			 M542.72,314.9h2.54c1.04,0,1.92-0.14,2.62-0.42c0.7-0.28,1.26-0.7,1.68-1.25s0.72-1.24,0.9-2.08c0.18-0.83,0.28-1.8,0.28-2.9
			c0-1.15-0.1-2.12-0.31-2.91c-0.21-0.79-0.53-1.45-0.97-1.95c-0.44-0.51-1.01-0.88-1.72-1.1c-0.71-0.23-1.56-0.34-2.56-0.34h-2.45
			V314.9z"/>
	</g>
</g>
<g>
	<g>
		<path class="st1" d="M325.23,290.11c0.91-0.98,1.64-1.71,2.29-2.48c6.91-8.18,3.02-22-7.53-23.37c-4.14-0.54-14.47-0.4-22.89-0.4
			v3.84h4.47c0,0,0.06,15.34-0.05,18.88c-0.08,2.65,0,2.24,0,4.44c1.32-0.3,2.23-0.44,4.04-0.51c5.15-0.21,11.18,0.76,14.32,2.81
			c6.53,4.25,9.55,9.76,10.32,16.28l8.87-8.24C336.16,296.09,331.5,292.43,325.23,290.11z M319.27,281.93
			c-0.56,4.8-1.98,5.95-7.87,5.95v-20.23c5.69-0.21,7.24,1.05,7.83,5.68C319.59,276.16,319.6,279.09,319.27,281.93z"/>
		<path class="st1" d="M288.17,302.51l7.26,6.7c1.07-3.13,2.72-6.13,4.95-8.95c5.93-7.48,13.22-3.46,12.32,0.47
			c-0.38,1.68-1.9,3.48-2.24,5.16c-0.29,0.85-0.45,1.76-0.45,2.71c0,4.67,3.78,8.45,8.45,8.45c0.48,0,0.95-0.05,1.41-0.13
			c1.61-0.12,3.15-0.73,4.49-2.03c0.96-0.92,1.6-1.96,1.94-3.06c0.04-0.13,0.07-0.25,0.1-0.38c0.32-0.89,0.52-1.85,0.5-2.85
			C326.74,296.53,303.05,284.66,288.17,302.51z"/>
	</g>
	<path class="st0" d="M313.61,321.38l-34.69-30.7c0.43,2.79,1.35,5.48,2.74,7.93l1.3,2.3l30.67,30.67l0.01-0.04l30.65-30.65l1.3-2.3
		c1.39-2.46,2.32-5.14,2.74-7.93L313.61,321.38z"/>
</g>
</svg>
